<svg xmlns="http://www.w3.org/2000/svg" viewBox="0 0 457.06 457.06"><defs><style>.cls-1{isolation:isolate;}.cls-2{fill:#39b54a;}.cls-3{mix-blend-mode:overlay;}.cls-4{fill:#b3b3b3;}.cls-5{fill:#ccc;mix-blend-mode:color-burn;}.cls-6{fill:#fff;}</style></defs><g class="cls-1"><g id="Camada_1" data-name="Camada 1"><path class="cls-2" d="M548.06,242.56c0,126.23-102.34,228.5-228.56,228.5A228.11,228.11,0,0,1,91,242.56C91,116.34,193.34,14,319.5,14S548.06,116.34,548.06,242.56Z" transform="translate(-91 -14)"/><g class="cls-3"><path class="cls-4" d="M319.53,444.58a200.57,200.57,0,0,1-75.73-14.69c-57.54-23.28-102-72.74-118.77-132.31a202.18,202.18,0,0,1-7.55-55c0-111.25,90.48-201.9,201.7-202.07h0a2.41,2.41,0,1,1,0,4.81C210.62,45.47,122.3,134,122.3,242.56A197.12,197.12,0,0,0,319.5,439.77h.77a2.41,2.41,0,0,1,0,4.82Zm194.8-155.77a2.48,2.48,0,0,1-.54-.06,2.41,2.41,0,0,1-1.82-2.88,197.08,197.08,0,0,0-38.58-166.59,2.41,2.41,0,1,1,3.75-3,202,202,0,0,1,39.53,170.67A2.4,2.4,0,0,1,514.33,288.81Z" transform="translate(-91 -14)"/></g><path class="cls-5" d="M345.12,225.55,328.3,266.13l12.07,24.39c-2.32,5.46-40.2,37.69-40.2,37.69l36.34,26.39L233.85,454.44A229.12,229.12,0,0,1,99.54,304.78L272.63,133.42l13.29,7.9h50.47l21,30.81Z" transform="translate(-91 -14)"/><path class="cls-6" d="M340.39,290.54H289.26V265.31q0-13.78,3.53-20.69t15-18.67l22.88-23.55q5-6.06,5-15.64t-5.38-16a17.59,17.59,0,0,0-14.13-6.4q-8.75,0-14.63,7.57t-7.24,20H240.81q3.7-33.63,24.56-52.82T317.68,120q31.45,0,51.14,17.15t19.68,47.44q0,13.45-3.36,20T380.43,214q-1.35,2.85-6.23,8.58t-6.56,7.4q-8.07,8.07-15.3,15.13t-9.59,11.61q-2.36,4.54-2.36,13.63Zm-45.92,64.09a30.05,30.05,0,1,1,21,8.58A28.6,28.6,0,0,1,294.47,354.63Z" transform="translate(-91 -14)"/></g></g></svg>