<svg xmlns="http://www.w3.org/2000/svg" viewBox="0 0 104.42 160.03"><defs><style>.cls-1{isolation:isolate;}.cls-2{fill:#39b54a;}.cls-3,.cls-4{fill:#fff;}.cls-4{mix-blend-mode:multiply;}.cls-5{fill:#8cb347;}</style></defs><g class="cls-1"><g id="Camada_1" data-name="Camada 1"><path class="cls-2" d="M354.86,264.43c-.26,18-7.58,25.67-7.58,25.67C346.6,250,307,207,307,207c13.08,26.63-44.75,60.11-44.75,108.13,0,30.12,37.15,52.24,55.77,48.45C398.49,347.17,354.86,264.43,354.86,264.43Zm-40.4,87.07s-41.71-20.52-1.18-66c0,0,20.14,20.4,16.27,39.41,0,0,5.68.6,12.91-9.74C342.46,315.17,344.15,344,314.46,351.5Z" transform="translate(-262.25 -207)"/><rect class="cls-2" x="16.75" y="89" width="69" height="52"/><path class="cls-3" d="M336.19,318.54c-1.6-2.76-.31-5.18,2.88-5.18h.62c3.19,0,4.49-2.09,2.89-4.85l-7.75-13.26c-1.6-2.76-.84-5,1.69-5s3.29-2.24,1.69-5l-6.93-11.93-5.82-10-6.93-11.93c-1.6-2.76-4.22-2.76-5.82,0l-6.93,11.94-5.82,10L293,285.31c-1.6,2.76-.84,5,1.69,5s3.29,2.26,1.69,5l-7.75,13.17c-1.6,2.76-.3,4.85,2.89,4.85h.62c3.19,0,4.49,2.42,2.88,5.18l-11.12,19.34c-1.61,2.75-.31,5.17,2.88,5.17h57.62c3.19,0,4.49-2.42,2.88-5.17Z" transform="translate(-262.25 -207)"/><path class="cls-4" d="M315.84,249.35c-1.13-.11-2.27.57-3.13,2.05l-6.93,11.94-5.82,10L293,285.31c-1.6,2.76-.84,5,1.69,5s3.29,2.26,1.69,5l-7.75,13.25c-1.6,2.76-.3,4.92,2.89,4.92h.62c3.19,0,4.49,2.35,2.88,5.11l-11.12,19.31c-1.61,2.76-.31,5.14,2.88,5.14h29Z" transform="translate(-262.25 -207)"/><line class="cls-5" x1="52.54" y1="160.03" x2="52.54" y2="88.99"/><polygon class="cls-3" points="40.54 160.03 50.54 88.99 54.54 88.99 64.54 160.03 40.54 160.03 40.54 160.03"/><line class="cls-5" x1="53.37" y1="125.29" x2="61.71" y2="116.95"/><polygon class="cls-3" points="49.84 121.75 61.12 116.37 62.3 117.54 56.91 128.82 49.84 121.75 49.84 121.75"/><line class="cls-5" x1="53.37" y1="136.95" x2="45.04" y2="128.62"/><polygon class="cls-3" points="49.84 140.49 44.45 129.21 45.63 128.03 56.91 133.41 49.84 140.49 49.84 140.49"/><line class="cls-5" x1="53.37" y1="113.1" x2="45.04" y2="104.76"/><polygon class="cls-3" points="49.84 116.63 44.45 105.35 45.63 104.17 56.91 109.56 49.84 116.63 49.84 116.63"/></g></g></svg>